<?xml version="1.0" encoding="UTF-8" standalone="no"?>
<svg width="197px" height="55px" viewBox="0 0 197 55" version="1.1" xmlns="http://www.w3.org/2000/svg" xmlns:xlink="http://www.w3.org/1999/xlink" xmlns:sketch="http://www.bohemiancoding.com/sketch/ns">
    <!-- Generator: Sketch 3.0.3 (7891) - http://www.bohemiancoding.com/sketch -->
    <title>logo</title>
    <desc>Created with Sketch.</desc>
    <defs></defs>
    <g id="Page-1" stroke="none" stroke-width="1" fill="none" fill-rule="evenodd" sketch:type="MSPage">
        <g id="Artboard-1" sketch:type="MSArtboardGroup" transform="translate(-93.000000, -902.000000)">
            <g id="logo" sketch:type="MSLayerGroup" transform="translate(93.000000, 902.000000)">
                <g id="Imported-Layers" sketch:type="MSShapeGroup">
                    <path d="M30.623,18.959 L35.586,23.922 C39.845,28.18 42.586,33.886 43.774,39.912 C49.073,34.427 53.019,29.645 53.391,29.193 C47.412,23.068 39.066,18.959 30.623,18.959" id="Fill-1" fill="#BB0D71"></path>
                    <path d="M35.586,30.941 C35.586,39.384 31.475,47.73 25.352,53.709 L25.39,53.741 C26.341,54.692 27.884,54.692 28.835,53.741 C28.835,53.741 35.101,48.622 41.703,42.021 C42.412,41.311 43.103,40.607 43.774,39.912 C42.586,33.886 39.845,28.18 35.586,23.922 L35.586,30.941" id="Fill-2" fill="#F9B133"></path>
                    <path d="M35.586,30.941 L30.623,35.904 C26.363,40.162 20.659,42.904 14.634,44.093 C19.95,49.216 24.892,53.328 25.352,53.709 C31.475,47.73 35.586,39.384 35.586,30.941" id="Fill-3" fill="#F29100"></path>
                    <path d="M0.802,29.153 C0.802,29.153 6.209,35.707 12.524,42.021 C13.228,42.725 13.933,43.417 14.634,44.091 C20.659,42.904 26.363,40.162 30.623,35.904 L23.603,35.904 C15.161,35.904 6.815,31.794 0.835,25.671 L0.802,25.708 C-0.149,26.659 -0.149,28.202 0.802,29.153" id="Fill-4" fill="#35875A"></path>
                    <path d="M23.603,35.904 L18.64,30.941 C14.382,26.683 11.642,20.982 10.454,14.957 C5.716,19.9 1.238,25.194 0.835,25.671 C6.815,31.794 15.161,35.904 23.603,35.904" id="Fill-5" fill="#269B58"></path>
                    <path d="M18.64,23.921 C18.64,15.478 22.749,7.131 28.874,1.152 L28.835,1.12 C27.884,0.17 26.342,0.17 25.39,1.12 C25.39,1.12 18.167,7.195 12.524,12.84 C11.835,13.527 11.142,14.239 10.454,14.957 C11.642,20.981 14.382,26.683 18.64,30.939 L18.64,23.921" id="Fill-6" fill="#32BAD8"></path>
                    <path d="M18.64,23.922 L23.603,18.959 C27.862,14.699 33.565,11.959 39.593,10.771 C34.276,5.646 29.334,1.533 28.874,1.154 C22.751,7.133 18.64,15.479 18.64,23.922" id="Fill-7" fill="#349FD6"></path>
                    <path d="M30.623,18.957 C39.066,18.957 47.412,23.068 53.391,29.193 L53.423,29.153 C54.374,28.202 54.374,26.659 53.423,25.708 C53.423,25.708 48.018,19.155 41.703,12.84 C40.999,12.136 40.293,11.445 39.593,10.769 C33.565,11.957 27.862,14.699 23.603,18.957 L30.623,18.957" id="Fill-8" fill="#E5007E"></path>
                    <path d="M25.212,53.593 C25.275,53.646 25.322,53.685 25.35,53.709 L25.351,53.709 C25.322,53.684 25.275,53.646 25.212,53.593 M24.211,52.751 L24.211,52.751 C24.341,52.861 24.462,52.962 24.571,53.055 C24.462,52.962 24.341,52.86 24.211,52.75" id="Fill-9" fill="#D2D2D1"></path>
                    <path d="M35.586,30.941 C35.056,39.238 30.551,47.186 24.211,52.751 C24.341,52.86 24.462,52.962 24.571,53.055 C24.857,53.296 25.074,53.477 25.212,53.593 C25.275,53.646 25.322,53.684 25.351,53.709 C31.476,47.728 35.586,39.383 35.586,30.941" id="Fill-10" fill="#C77700"></path>
                    <path d="M13.636,43.123 L13.636,43.123 C13.725,43.21 13.814,43.296 13.902,43.383 C13.814,43.296 13.725,43.21 13.636,43.123" id="Fill-11" fill="#D2D2D1"></path>
                    <path d="M30.623,35.904 C25.974,39.993 19.906,42.39 13.636,43.123 C13.725,43.21 13.814,43.296 13.902,43.383 C14.146,43.621 14.39,43.857 14.634,44.091 C20.659,42.904 26.363,40.162 30.623,35.904" id="Fill-12" fill="#2C6F4A"></path>
                    <path d="M1.509,24.879 C1.147,25.301 0.914,25.577 0.835,25.671 C0.914,25.577 1.148,25.301 1.509,24.879" id="Fill-13" fill="#D2D2D1"></path>
                    <path d="M1.8,24.539 C1.696,24.661 1.598,24.774 1.509,24.879 C1.148,25.301 0.914,25.577 0.835,25.671 C6.815,31.794 15.161,35.904 23.603,35.904 C15.308,35.374 7.363,30.873 1.8,24.539" id="Fill-14" fill="#1F8048"></path>
                    <path d="M11.047,17.476 C12.443,22.556 14.981,27.282 18.64,30.941 C18.636,30.937 18.632,30.932 18.629,30.928 C14.976,27.272 12.441,22.55 11.047,17.476 M11.055,14.333 C10.854,14.54 10.653,14.748 10.454,14.957 C10.654,14.748 10.854,14.54 11.055,14.333" id="Fill-15" fill="#D2D2D1"></path>
                    <path d="M11.422,13.956 C11.3,14.081 11.177,14.207 11.055,14.333 C10.854,14.54 10.654,14.748 10.454,14.957 C10.62,15.804 10.818,16.645 11.047,17.476 C12.441,22.55 14.976,27.272 18.629,30.928 C14.545,26.281 12.154,20.22 11.422,13.956" id="Fill-16" fill="#2999B1"></path>
                    <path d="M28.888,1.165 C29.02,1.274 29.415,1.602 30.013,2.111 C29.414,1.602 29.021,1.275 28.888,1.165 M28.874,1.154 C22.943,6.946 18.899,14.958 18.653,23.129 C18.644,23.393 18.64,23.657 18.64,23.921 C18.641,15.478 22.751,7.133 28.874,1.154 C28.877,1.156 28.88,1.158 28.883,1.161 C28.88,1.158 28.877,1.156 28.874,1.154" id="Fill-17" fill="#D2D2D1"></path>
                    <path d="M18.653,23.129 C18.644,23.393 18.64,23.657 18.64,23.921 C18.64,23.657 18.644,23.393 18.653,23.129" id="Fill-18" fill="#2999B1"></path>
                    <path d="M28.874,1.154 C22.751,7.133 18.641,15.478 18.64,23.92 C19.17,15.623 23.675,7.676 30.013,2.111 C29.415,1.602 29.02,1.274 28.888,1.165 C28.886,1.164 28.884,1.162 28.883,1.161 C28.88,1.158 28.877,1.156 28.874,1.154" id="Fill-19" fill="#2B83B0"></path>
                    <path d="M40.132,11.291 C40.284,11.44 40.438,11.589 40.59,11.739 C40.438,11.589 40.285,11.44 40.132,11.291" id="Fill-20" fill="#D2D2D1"></path>
                    <path d="M39.593,10.769 L39.591,10.769 C33.564,11.958 27.862,14.7 23.603,18.957 C28.251,14.868 34.319,12.471 40.59,11.739 C40.438,11.589 40.284,11.44 40.132,11.291 C39.952,11.117 39.772,10.943 39.593,10.769" id="Fill-21" fill="#BC0067"></path>
                    <path d="M52.732,29.984 C52.642,30.091 52.543,30.208 52.437,30.334 L52.437,30.335 C52.544,30.209 52.642,30.091 52.732,29.984" id="Fill-22" fill="#D2D2D1"></path>
                    <path d="M30.623,18.959 C38.923,19.489 46.871,23.995 52.437,30.335 C52.543,30.208 52.642,30.091 52.732,29.984 C53.088,29.56 53.314,29.286 53.391,29.193 C47.552,23.213 39.455,19.152 31.216,18.965 C31.018,18.961 30.82,18.959 30.623,18.959" id="Fill-23" fill="#9A0B5D"></path>
                    <path d="M43.111,40.595 C43.009,40.699 42.907,40.804 42.804,40.909 C42.908,40.804 43.009,40.7 43.111,40.595" id="Fill-24" fill="#D2D2D1"></path>
                    <path d="M35.586,23.921 C35.59,23.925 35.594,23.929 35.597,23.934 C39.85,28.19 42.586,33.89 43.774,39.911 C42.586,33.884 39.845,28.18 35.586,23.921" id="Fill-25" fill="#9A0B5D"></path>
                    <path d="M35.597,23.934 C39.681,28.581 42.072,34.643 42.804,40.909 C42.907,40.804 43.009,40.699 43.111,40.595 C43.334,40.366 43.554,40.138 43.774,39.911 C42.586,33.89 39.85,28.19 35.597,23.934" id="Fill-26" fill="#CC922A"></path>
                </g>
                <g id="Imported-Layers" transform="translate(65.000000, 12.000000)" fill="#444444" sketch:type="MSShapeGroup">
                    <path d="M26.03,25.787 C23.472,25.787 22.455,24.595 22.455,22.352 L22.455,15.062 C22.455,11.942 21.053,10.61 18.985,10.61 C17.093,10.61 15.796,11.942 15.796,14.536 L15.796,25.787 L14.534,25.787 C12.466,25.787 11.098,24.595 11.098,22.352 L11.098,15.062 C11.098,11.942 9.662,10.61 7.594,10.61 C5.772,10.61 4.404,12.047 4.404,14.641 L4.404,25.787 L3.142,25.787 C1.215,25.787 -0.257,24.525 -0.257,22.352 L-0.257,15.026 C-0.257,9.874 2.441,6.439 8.155,6.439 C10.608,6.439 12.536,7.561 13.903,9.383 C14.989,7.631 17.058,6.439 19.336,6.439 C23.682,6.439 27.186,9.068 27.186,14.431 L27.186,25.787 L26.03,25.787 M38.819,18.356 L35.734,18.356 C36.085,20.74 38.259,22.247 41.027,22.247 C42.99,22.247 45.304,21.861 46.811,20.459 L46.985,20.459 L46.985,21.931 C46.985,24.35 45.338,26.207 40.151,26.207 C35.454,26.207 30.863,22.492 30.863,16.709 C30.863,10.4 34.719,6.439 40.116,6.439 C44.042,6.439 47.686,9.243 47.686,13.765 C47.686,17.234 45.058,18.356 38.819,18.356 L38.819,18.356 Z M39.695,10.365 C37.417,10.365 35.84,12.223 35.734,14.396 L35.7,15.026 L37.803,15.026 C42.254,15.026 43.271,14.536 43.271,13.204 C43.271,11.311 41.868,10.365 39.695,10.365 L39.695,10.365 Z M52.837,3.881 C53.468,3.145 54.308,2.584 55.045,2.584 L56.132,2.584 L56.132,6.86 L62.685,6.86 L62.685,8.788 C62.685,9.769 61.81,11.031 59.882,11.031 L56.132,11.031 L56.132,18.426 C56.132,20.88 57.218,21.826 59.11,21.826 C60.618,21.826 61.775,21.616 62.51,21.16 L62.685,21.16 L62.685,22.842 C62.685,24.77 61.284,25.997 58.55,25.997 C53.783,25.997 51.47,23.403 51.47,18.987 L51.47,7.631 C51.47,5.773 51.82,5.072 52.837,3.881 M73.164,26.102 L72.218,26.102 C67.731,26.102 64.648,23.579 64.648,20.108 C64.648,16.744 67.1,14.185 74.04,14.185 L75.688,14.185 L75.688,13.94 C75.688,11.276 74.426,10.47 71.622,10.47 C68.222,10.47 66.329,11.767 65.628,12.643 L65.453,12.643 L65.453,11.136 C65.453,9.033 67.346,6.509 72.323,6.509 C76.528,6.509 80.315,8.472 80.315,14.991 L80.315,19.337 C80.315,23.333 77.37,26.102 73.164,26.102 L73.164,26.102 Z M75.723,17.55 L74.04,17.55 C70.465,17.55 69.449,18.391 69.449,19.934 C69.449,21.405 70.64,22.282 72.708,22.282 C74.741,22.282 75.723,21.3 75.723,19.373 L75.723,17.55 L75.723,17.55 Z M93.56,26.207 C91.458,26.207 89.74,25.016 88.794,23.403 L88.794,31.745 L87.322,31.745 C85.64,31.745 84.027,30.518 84.027,28.485 L84.027,17.059 C84.027,10.786 86.831,6.439 93.49,6.439 C98.503,6.439 102.078,10.996 102.078,15.763 C102.078,21.826 99.064,26.207 93.56,26.207 L93.56,26.207 Z M92.755,10.61 C90.161,10.61 88.723,12.854 88.723,16.113 C88.723,19.898 90.581,22.036 93.386,22.036 C95.664,22.036 97.241,20.003 97.241,16.989 C97.241,12.538 95.768,10.61 92.755,10.61 L92.755,10.61 Z M108.665,5.528 C107.158,5.528 105.931,4.266 105.931,2.759 C105.931,1.252 107.158,0.025 108.665,0.025 C110.172,0.025 111.433,1.252 111.433,2.759 C111.433,4.266 110.172,5.528 108.665,5.528 L108.665,5.528 Z M111.994,25.962 C108.35,25.962 106.351,23.894 106.351,20.074 L106.351,7.281 L107.683,7.281 C109.786,7.281 111.048,8.402 111.048,10.786 L111.048,19.618 C111.048,21.511 111.854,22.106 113.922,22.106 L114.799,22.106 L114.799,23.123 C114.799,25.156 113.992,25.962 111.994,25.962 L111.994,25.962 Z M131.726,12.958 C131.095,11.872 129.307,10.996 126.608,10.996 C123.875,10.996 121.456,13.204 121.456,16.008 C121.456,19.443 123.489,21.791 126.679,21.791 C129.378,21.791 130.99,20.915 131.655,20.039 L131.831,20.039 L131.831,22.211 C131.831,24.49 129.623,26.137 126.223,26.137 C121.036,26.137 116.55,22.106 116.55,16.709 C116.55,11.311 120.3,6.685 126.749,6.685 C129.763,6.685 131.901,8.507 131.901,10.75 L131.901,12.958 L131.726,12.958" id="Fill-1"></path>
                </g>
            </g>
        </g>
    </g>
</svg>